<svg width="19" height="19" viewBox="0 0 19 19" fill="none" xmlns="http://www.w3.org/2000/svg">
<path d="M12.2597 12.3356L11.8426 12.7756C11.8426 12.7756 10.8498 13.8197 8.14107 10.9679C5.43232 8.1162 6.42507 7.07211 6.42507 7.07211L6.68816 6.79436C7.33532 6.11236 7.39674 5.01786 6.83116 4.21853L5.67616 2.58411C4.97582 1.59411 3.62374 1.46395 2.82166 2.3082L1.38341 3.82161C0.98649 4.24053 0.720657 4.78228 0.75274 5.38453C0.83524 6.92453 1.49341 10.2364 5.16374 14.102C9.05682 18.1995 12.7097 18.3627 14.203 18.2151C14.676 18.1693 15.0867 17.9135 15.4176 17.5652L16.7192 16.1939C17.5992 15.268 17.3517 13.6822 16.2261 13.035L14.4752 12.0267C13.7364 11.6023 12.8372 11.7269 12.2597 12.3347V12.3356ZM10.155 0.723281C10.1845 0.543339 10.2841 0.382439 10.4321 0.275889C10.58 0.169338 10.7642 0.125843 10.9442 0.154947C10.9672 0.159531 11.0423 0.173281 11.0817 0.182447C11.1597 0.198947 11.2687 0.226447 11.4044 0.264947C11.6767 0.344697 12.0571 0.475781 12.5136 0.684781C13.4266 1.1037 14.6412 1.83611 15.9025 3.09653C17.1638 4.35786 17.8962 5.57336 18.3152 6.48636C18.5242 6.94286 18.6543 7.32236 18.7341 7.59553C18.7743 7.73278 18.8088 7.87162 18.8377 8.0117L18.8422 8.04012C18.8724 8.22165 18.83 8.40777 18.7242 8.55833C18.6184 8.7089 18.4577 8.81184 18.2767 8.84495C18.0972 8.87409 17.9134 8.83094 17.7657 8.72494C17.618 8.61894 17.5182 8.45873 17.4883 8.27936C17.4696 8.17806 17.4448 8.07796 17.4141 7.97961C17.3204 7.6648 17.204 7.35721 17.0657 7.05928C16.7082 6.28011 16.0647 5.20395 14.9299 4.06911C13.796 2.93428 12.7189 2.2917 11.9397 1.9342C11.6421 1.79598 11.3348 1.67956 11.0203 1.58586C10.9239 1.55865 10.8267 1.5342 10.7288 1.51253C10.5486 1.48277 10.3873 1.38331 10.2798 1.23565C10.1722 1.08798 10.1271 0.903948 10.1541 0.723281H10.155Z" fill="white"/>
<path fill-rule="evenodd" clip-rule="evenodd" d="M10.3622 3.88582C10.3869 3.79895 10.4285 3.71781 10.4845 3.64702C10.5406 3.57624 10.6101 3.51719 10.689 3.47327C10.7679 3.42934 10.8547 3.40139 10.9445 3.39102C11.0342 3.38065 11.125 3.38806 11.2119 3.41282L11.2147 3.41374L11.2174 3.41465L11.2247 3.41649L11.2431 3.42199L11.2944 3.44032C11.538 3.53417 11.7732 3.64856 11.9975 3.78224C12.4457 4.04807 13.0581 4.48807 13.7777 5.20857C14.4972 5.92815 14.9382 6.54049 15.204 6.98874C15.3369 7.21332 15.4249 7.39574 15.4817 7.52957C15.5122 7.59958 15.5397 7.67083 15.5642 7.74315L15.5688 7.76149L15.5716 7.76882V7.77157L15.5725 7.77249C15.5725 7.77249 15.5725 7.77432 14.9125 7.96315L15.5725 7.77432C15.619 7.94777 15.5959 8.13256 15.5079 8.28915C15.42 8.44574 15.2743 8.56171 15.102 8.61225C14.9296 8.66279 14.7443 8.64389 14.5858 8.55959C14.4272 8.47528 14.3079 8.33228 14.2534 8.16115L14.2507 8.15199C14.1862 7.99235 14.1096 7.8379 14.0215 7.68999C13.8162 7.3444 13.4467 6.8219 12.8051 6.18024C12.1634 5.53857 11.6418 5.17007 11.2962 4.96565C11.1483 4.87753 10.9939 4.80092 10.8342 4.73649L10.8251 4.73282C10.6519 4.68076 10.5062 4.56258 10.4196 4.40387C10.3329 4.24517 10.3123 4.05963 10.3622 3.88582Z" fill="white"/>
</svg>
