<svg width="14" height="18" viewBox="0 0 14 18" fill="none" xmlns="http://www.w3.org/2000/svg">
<path d="M7.00001 8.99984C7.45834 8.99984 7.85084 8.8365 8.17751 8.50984C8.50418 8.18317 8.66723 7.79095 8.66668 7.33317C8.66668 6.87484 8.50334 6.48234 8.17668 6.15567C7.85001 5.829 7.45779 5.66595 7.00001 5.6665C6.54168 5.6665 6.14918 5.82984 5.82251 6.1565C5.49584 6.48317 5.33279 6.87539 5.33334 7.33317C5.33334 7.7915 5.49668 8.184 5.82334 8.51067C6.15001 8.83734 6.54223 9.00039 7.00001 8.99984ZM7.00001 17.3332C4.7639 15.4304 3.0939 13.6632 1.99001 12.0315C0.886121 10.3998 0.333899 8.88928 0.333344 7.49984C0.333344 5.4165 1.00362 3.75678 2.34418 2.52067C3.68473 1.28456 5.23668 0.666504 7.00001 0.666504C8.7639 0.666504 10.3161 1.28456 11.6567 2.52067C12.9972 3.75678 13.6672 5.4165 13.6667 7.49984C13.6667 8.88873 13.1145 10.3993 12.01 12.0315C10.9056 13.6637 9.23557 15.4309 7.00001 17.3332Z" fill="#F1F5FA"/>
</svg>
