<svg width="22" height="38" viewBox="0 0 22 38" fill="none" xmlns="http://www.w3.org/2000/svg">
<path d="M0.75998 37.0201C1.73998 38.0001 3.31998 38.0001 4.29998 37.0201L20.92 20.4001C21.1054 20.2151 21.2525 19.9953 21.3528 19.7533C21.4532 19.5114 21.5049 19.252 21.5049 18.9901C21.5049 18.7282 21.4532 18.4688 21.3528 18.2268C21.2525 17.9849 21.1054 17.7651 20.92 17.5801L4.29998 0.960098C3.31998 -0.0199023 1.73998 -0.0199023 0.75998 0.960098C-0.22002 1.9401 -0.22002 3.5201 0.75998 4.5001L15.24 19.0001L0.73998 33.5001C-0.22002 34.4601 -0.22002 36.0601 0.75998 37.0201Z" fill="#FE7007"/>
</svg>
