<svg width="12" height="12" viewBox="0 0 12 12" fill="none" xmlns="http://www.w3.org/2000/svg">
<path d="M10.1818 3.27255L2.11365 11.3635C1.93183 11.5453 1.71577 11.6362 1.46547 11.6362C1.21517 11.6362 0.99941 11.5453 0.818198 11.3635C0.63638 11.1816 0.545471 10.9656 0.545471 10.7153C0.545471 10.465 0.63638 10.2492 0.818198 10.068L8.90911 1.99983H2.00002C1.74244 1.99983 1.52638 1.91255 1.35183 1.73801C1.17729 1.56346 1.09032 1.3477 1.09093 1.09073C1.09093 0.833159 1.1782 0.617098 1.35274 0.442553C1.52729 0.268008 1.74305 0.181038 2.00002 0.181644H11.0909C11.3485 0.181644 11.5646 0.268917 11.7391 0.443462C11.9137 0.618008 12.0006 0.833765 12 1.09073V10.1816C12 10.4392 11.9127 10.6553 11.7382 10.8298C11.5637 11.0044 11.3479 11.0913 11.0909 11.0907C10.8333 11.0907 10.6173 11.0035 10.4427 10.8289C10.2682 10.6544 10.1812 10.4386 10.1818 10.1816V3.27255Z" fill="white"/>
</svg>
