<svg width="22" height="38" viewBox="0 0 22 38" fill="none" xmlns="http://www.w3.org/2000/svg">
<path d="M21.24 0.9799C20.26 -9.93323e-05 18.68 -9.94704e-05 17.7 0.9799L1.07999 17.5999C0.894584 17.7849 0.74749 18.0047 0.647127 18.2467C0.546764 18.4886 0.495104 18.748 0.495104 19.0099C0.495104 19.2718 0.546764 19.5312 0.647127 19.7731C0.74749 20.0151 0.894584 20.2349 1.07999 20.4199L17.7 37.0399C18.68 38.0199 20.26 38.0199 21.24 37.0399C22.22 36.0599 22.22 34.4799 21.24 33.4999L6.75999 18.9999L21.26 4.4999C22.22 3.5399 22.22 1.9399 21.24 0.9799Z" fill="#BBC0C6"/>
</svg>
