<svg width="22" height="22" viewBox="0 0 22 22" fill="none" xmlns="http://www.w3.org/2000/svg">
<path d="M21.3125 5.50214C21.3133 4.97234 21.161 4.45359 20.8739 4.00828C20.5869 3.56297 20.1773 3.21005 19.6945 2.99197C19.2117 2.77388 18.6761 2.69991 18.1523 2.77894C17.6284 2.85798 17.1385 3.08666 16.7415 3.43749C16.5266 3.62709 16.3423 3.84886 16.1954 4.09492V4.09749C16.1722 4.13617 16.1502 4.1757 16.1288 4.21523L16.1184 4.23628C16.1004 4.27023 16.0836 4.3046 16.0673 4.33941C16.0622 4.35015 16.0574 4.36089 16.0527 4.37163C16.0385 4.403 16.0248 4.4348 16.0119 4.46702C16.0063 4.48034 16.0011 4.49366 15.996 4.50699C15.9844 4.53706 15.9732 4.56714 15.9625 4.59765L15.947 4.6432C15.9375 4.67241 15.9285 4.70206 15.9199 4.73171C15.9148 4.74847 15.91 4.7648 15.9057 4.78156C15.8976 4.81034 15.8907 4.83956 15.8838 4.86749C15.8795 4.88511 15.8752 4.90273 15.8714 4.92034C15.8654 4.94956 15.8598 4.97921 15.8546 5.00628C15.8512 5.02433 15.8477 5.04238 15.8447 5.06042C15.84 5.0905 15.8361 5.12101 15.8323 5.15152C15.8301 5.16913 15.8275 5.18675 15.8254 5.2048C15.822 5.23788 15.8198 5.27097 15.8172 5.30449C15.8172 5.31995 15.8147 5.33542 15.8138 5.35089C15.8112 5.39988 15.8095 5.44886 15.8095 5.4987C15.8095 5.54167 15.8095 5.58464 15.8129 5.62503V5.65253C15.8152 5.69292 15.8182 5.73331 15.822 5.7737L15.8245 5.79433C15.8284 5.83085 15.8327 5.86695 15.8383 5.90261C15.8383 5.90991 15.8383 5.91765 15.8413 5.92495C15.8473 5.96406 15.8546 6.00273 15.8623 6.0414C15.8623 6.05085 15.8662 6.05988 15.8679 6.06933C15.8757 6.10628 15.8843 6.14324 15.8937 6.17976V6.18792C15.9036 6.22616 15.9143 6.26355 15.9259 6.30093L15.935 6.33015C15.9466 6.36667 15.9586 6.40234 15.9715 6.438C15.9741 6.44574 15.9771 6.45347 15.9801 6.4612C15.9917 6.49171 16.0037 6.52222 16.0162 6.5523C16.0196 6.56132 16.023 6.56992 16.0269 6.57851C16.0415 6.61245 16.0566 6.6464 16.0725 6.67992L16.0866 6.7087C16.1017 6.73878 16.1167 6.76886 16.1326 6.79851C16.3569 7.21536 16.6845 7.56763 17.0839 7.82159C17.1888 7.88858 17.2982 7.94817 17.4114 7.99991L17.4281 8.00765C17.5043 8.04202 17.5821 8.07296 17.6614 8.10046L17.7023 8.11421L17.7667 8.13441C17.7861 8.14042 17.8054 8.14558 17.8252 8.15116L17.9077 8.17265L17.982 8.18984L18.0314 8.19972L18.11 8.2139L18.1504 8.22034C18.1891 8.22593 18.2282 8.23109 18.2673 8.23538L18.3004 8.23839C18.3318 8.24097 18.3636 8.24355 18.3954 8.24527L18.4323 8.24742C18.4753 8.24742 18.5157 8.25085 18.5578 8.25085C18.6076 8.25085 18.6566 8.25085 18.7056 8.24656L18.752 8.24312C18.7855 8.24054 18.8186 8.23839 18.8517 8.23495L18.9054 8.22808C18.9355 8.22421 18.966 8.22034 18.9961 8.21562L19.0502 8.20574C19.0794 8.20058 19.1091 8.19499 19.1361 8.18898L19.189 8.17652C19.2182 8.16964 19.2474 8.16277 19.2749 8.1546C19.2917 8.15031 19.308 8.14558 19.3248 8.14042C19.3544 8.13183 19.3841 8.12281 19.4133 8.11335L19.4588 8.09788C19.4893 8.08714 19.5194 8.07597 19.5495 8.06437L19.5895 8.04847C19.6217 8.03558 19.6535 8.02183 19.6848 8.00765L19.7171 7.99304C19.7519 7.97671 19.7863 7.95995 19.8202 7.94191L19.8413 7.93159C19.8808 7.91011 19.9203 7.88863 19.959 7.86499H19.9616C20.2096 7.71919 20.4334 7.53566 20.625 7.32101C21.0687 6.81907 21.3132 6.17206 21.3125 5.50214Z" fill="white"/>
<path d="M15.9577 8.70246L11.422 12.2302C11.3013 12.324 11.1528 12.3749 11 12.3749C10.8472 12.3749 10.6987 12.324 10.578 12.2302L4.39055 7.4177C4.31785 7.3628 4.25679 7.294 4.21091 7.21529C4.16503 7.13659 4.13525 7.04956 4.1233 6.95925C4.11135 6.86893 4.11747 6.77715 4.1413 6.68922C4.16513 6.6013 4.2062 6.51898 4.26211 6.44707C4.31803 6.37515 4.38768 6.31506 4.46702 6.2703C4.54636 6.22553 4.63381 6.19698 4.72428 6.1863C4.81475 6.17562 4.90644 6.18303 4.99402 6.2081C5.0816 6.23316 5.16333 6.27538 5.23445 6.3323L11 10.8165L15.0485 7.66777C14.6568 7.03405 14.4443 6.30595 14.4336 5.56101C14.4229 4.81607 14.6145 4.08218 14.9879 3.4375H3.78125C3.14328 3.43818 2.53164 3.69192 2.08053 4.14303C1.62942 4.59414 1.37568 5.20578 1.375 5.84375V16.1562C1.37568 16.7942 1.62942 17.4059 2.08053 17.857C2.53164 18.3081 3.14328 18.5618 3.78125 18.5625H18.2188C18.8567 18.5618 19.4684 18.3081 19.9195 17.857C20.3706 17.4059 20.6243 16.7942 20.625 16.1562V9.07457C19.9013 9.49378 19.0671 9.68272 18.2333 9.61625C17.3996 9.54978 16.6059 9.23105 15.9577 8.70246Z" fill="white"/>
</svg>
